<svg viewBox="0 0 175 150" xmlns="http://www.w3.org/2000/svg" xmlns:xlink="http://www.w3.org/1999/xlink" width="175.000000" height="150.000000" fill="none" customFrame="#000000">
	<g id="Тауер">
		<rect id="Прямоугольник 1" width="57.712753" height="27.950312" x="0.000000" y="122.049690" fill="rgb(170,19,42)" />
		<path id="Многоугольник 1" d="M48.2037 57.2981L9.509 57.2981L28.8564 0L48.2037 57.2981Z" fill="rgb(170,19,42)" fill-rule="evenodd" />
		<rect id="Прямоугольник 4" width="53.989372" height="13.975161" x="48.404247" y="99.689438" fill="rgb(170,19,42)" />
		<rect id="Прямоугольник 5" width="53.989372" height="13.975161" x="48.404247" y="74.534157" fill="rgb(170,19,42)" />
		<rect id="Прямоугольник 7" width="25.150715" height="9.312498" x="0.000000" y="0.000000" fill="rgb(170,19,42)" transform="matrix(-0.452344,-0.891844,0.71899,-0.69502,72.8129,107.164)" />
		<path id="Исключить" d="M48.4042 150L48.4042 38.1988L9.30851 38.1988L9.30851 150L48.4042 150ZM35.6826 68.1159C35.6826 65.486 32.6264 63.354 28.8564 63.354C25.0863 63.354 22.0301 65.486 22.0301 68.1159L22.0301 80.0207L18.617 80.0207L18.617 84.7826L39.0957 84.7826L39.0957 80.0207L35.6826 80.0207L35.6826 68.1159Z" fill="rgb(170,19,42)" fill-rule="evenodd" />
		<rect id="Прямоугольник 9" width="57.712753" height="27.950312" x="0.000000" y="0.000000" fill="rgb(170,19,42)" transform="matrix(-1,0,0,1,175,122.05)" />
		<path id="Многоугольник 2" d="M41.6878 57.2981L2.99305 57.2981L22.3404 0L41.6878 57.2981Z" fill="rgb(170,19,42)" fill-rule="evenodd" transform="matrix(-1,0,0,1,168.484,0)" />
		<rect id="Прямоугольник 10" width="53.989372" height="13.975161" x="0.000000" y="0.000000" fill="rgb(170,19,42)" transform="matrix(-1,2.84469e-14,2.83965e-14,1,126.596,99.6894)" />
		<rect id="Прямоугольник 11" width="53.989372" height="13.975161" x="0.000000" y="0.000000" fill="rgb(170,19,42)" transform="matrix(-1,2.84469e-14,2.83965e-14,1,126.596,74.5342)" />
		<rect id="Прямоугольник 12" width="25.150715" height="9.312498" x="0.000000" y="0.000000" fill="rgb(170,19,42)" transform="matrix(0.452344,-0.891844,-0.71899,-0.69502,102.573,107.164)" />
		<path id="Исключить" d="M39.0957 111.801L39.0957 0L0 0L0 111.801L39.0957 111.801ZM26.3741 29.9172C26.3741 27.2873 23.3179 25.1553 19.5479 25.1553C15.7778 25.1553 12.7216 27.2873 12.7216 29.9172L12.7216 41.8219L9.30851 41.8219L9.30851 46.5839L29.7872 46.5839L29.7872 41.8219L26.3741 41.8219L26.3741 29.9172Z" fill="rgb(170,19,42)" fill-rule="evenodd" transform="matrix(-1,0,0,1,165.691,38.1988)" />
	</g>
</svg>
